<svg width="25" height="24" viewBox="0 0 25 24" fill="none" xmlns="http://www.w3.org/2000/svg">
<path d="M22.125 11.9998C22.1274 10.3601 21.7267 8.74503 20.958 7.29672C20.1893 5.84841 19.0762 4.61133 17.7169 3.69445C16.3575 2.77757 14.7936 2.20902 13.1628 2.03886C11.5319 1.8687 9.88431 2.10216 8.36497 2.71868C6.84562 3.3352 5.50119 4.31586 4.45007 5.5743C3.39895 6.83273 2.6734 8.33032 2.33732 9.93517C2.00124 11.54 2.06494 13.2029 2.52281 14.7773C2.98068 16.3518 3.81868 17.7895 4.96299 18.9638L4.90599 19.0148L5.80599 19.7498C6.03899 19.9398 6.28199 20.1178 6.53099 20.2858C6.54999 20.2988 6.57099 20.3098 6.59099 20.3228C6.81999 20.4748 7.05399 20.6178 7.29099 20.7498C7.40199 20.8118 7.51699 20.8648 7.62999 20.9218C7.78299 20.9988 7.92999 21.0758 8.09099 21.1448C8.25199 21.2138 8.37699 21.2628 8.52199 21.3188C8.66699 21.3748 8.79399 21.4188 8.93199 21.4688C9.08499 21.5208 9.23899 21.5688 9.39599 21.6128C9.53799 21.6528 9.68099 21.6888 9.82499 21.7238C9.96899 21.7588 10.125 21.7938 10.28 21.8238C10.453 21.8558 10.628 21.8798 10.803 21.9038C10.931 21.9208 11.056 21.9418 11.185 21.9538C11.496 21.9828 11.808 22.0008 12.121 22.0008C12.434 22.0008 12.746 21.9828 13.057 21.9538C13.186 21.9418 13.311 21.9208 13.439 21.9038C13.614 21.8798 13.789 21.8558 13.962 21.8238C14.115 21.7948 14.262 21.7598 14.417 21.7238C14.572 21.6878 14.704 21.6528 14.846 21.6128C15.003 21.5678 15.157 21.5208 15.31 21.4688C15.448 21.4228 15.584 21.3688 15.72 21.3188C15.856 21.2688 16.01 21.2068 16.152 21.1438C16.294 21.0808 16.459 20.9988 16.611 20.9228C16.725 20.8648 16.84 20.8118 16.951 20.7498C17.19 20.6178 17.424 20.4748 17.651 20.3228C17.671 20.3098 17.692 20.2988 17.711 20.2858C17.96 20.1178 18.203 19.9398 18.436 19.7498L19.336 19.0148L19.279 18.9638C21.1013 17.1036 22.1229 14.6039 22.125 11.9998ZM12.125 3.99981C13.7073 4.00113 15.2537 4.47165 16.5685 5.35185C17.8834 6.23206 18.9078 7.48241 19.512 8.9448C20.1162 10.4072 20.2733 12.0159 19.9632 13.5675C19.6531 15.1191 18.8899 16.544 17.77 17.6618C16.1138 16.5198 14.1358 15.9374 12.125 15.9998C10.1142 15.9374 8.13617 16.5198 6.47999 17.6618C5.36012 16.544 4.59688 15.1191 4.2868 13.5675C3.97673 12.0159 4.13374 10.4072 4.73798 8.9448C5.34222 7.48241 6.36656 6.23206 7.68144 5.35185C8.99632 4.47165 10.5427 4.00113 12.125 3.99981ZM15.994 18.9998C15.7352 19.1448 15.4681 19.2744 15.194 19.3878C15.142 19.4098 15.087 19.4258 15.035 19.4458C14.7668 19.5508 14.4931 19.6409 14.215 19.7158L14.128 19.7378C12.8117 20.0678 11.4343 20.0678 10.118 19.7378L10.031 19.7158C9.75292 19.6409 9.47917 19.5508 9.21099 19.4458C9.15899 19.4258 9.10399 19.4098 9.05199 19.3878C8.77791 19.2744 8.51078 19.1448 8.25199 18.9998C8.22399 18.9838 8.19699 18.9648 8.16799 18.9488C9.38036 18.2894 10.7454 17.962 12.125 17.9998C13.5029 17.9618 14.8665 18.2881 16.078 18.9458C16.049 18.9618 16.025 18.9808 15.994 18.9998Z" fill="#8A8A8E"/>
<path d="M12.125 15C13.015 15 13.885 14.7361 14.6251 14.2416C15.3651 13.7471 15.9419 13.0443 16.2825 12.2221C16.6231 11.3998 16.7122 10.495 16.5385 9.6221C16.3649 8.74918 15.9363 7.94736 15.307 7.31802C14.6776 6.68868 13.8758 6.2601 13.0029 6.08647C12.13 5.91283 11.2252 6.00195 10.4029 6.34254C9.58066 6.68314 8.87785 7.25991 8.38339 7.99994C7.88892 8.73996 7.625 9.60999 7.625 10.5C7.62632 11.6931 8.10085 12.8369 8.94448 13.6805C9.78811 14.5241 10.9319 14.9987 12.125 15ZM12.125 8C12.6195 8 13.1028 8.14662 13.5139 8.42133C13.925 8.69603 14.2455 9.08648 14.4347 9.54329C14.6239 10.0001 14.6734 10.5028 14.577 10.9877C14.4805 11.4727 14.2424 11.9181 13.8928 12.2678C13.5431 12.6174 13.0977 12.8555 12.6127 12.952C12.1278 13.0484 11.6251 12.9989 11.1683 12.8097C10.7115 12.6205 10.321 12.3001 10.0463 11.8889C9.77162 11.4778 9.625 10.9945 9.625 10.5C9.625 9.83696 9.88839 9.20108 10.3572 8.73223C10.8261 8.26339 11.462 8 12.125 8Z" fill="#8A8A8E"/>
</svg>
